:SAMPLES-PER-SECOND 30
:FULLY-SPECIFIED
:DEGREES
620
root  -12.3899 40.4483 -5.98806 -105.979 -88.3942 103.066
RightUpLeg  -2.48796 -14.0238 -3.22346
RightLeg  16.1341 -8.3447 3.04181
RightFoot  -9.62974 -0.0242009 -2.75031
RightToes  0.000482159 0.542163 -0.142577
Spine  12.0936 1.76872 12.7124
Spine1  13.1572 7.16086 -11.8851
HEad  37.8436 34.4204 -2.64303
LeftShoulder1  6.73345 -10.0298 -43.2573
LeftArm  -17.2017 25.4388 -24.3148
LeftForeArm  23.3343 -29.7425 -5.17674
LeftHand  -0.25398 0.0180481 5.50724
RightShoulder  5.58824 9.66078 36.4564
RightArm  1.4362 -18.2523 37.966
RightForeArm  4.58693 16.884 6.16522
RightHand  -0.19792 -3.48567 -10.9187
LeftUpLeg  -12.1105 5.10495 3.05352
LeftLeg  29.7616 7.13079 4.72146
LeftFoot  -6.33517 0.354722 -7.22389
LeftToes  1.06247e-005 4.65855e-005 -8.18504e-006
621
root  -11.6208 40.4331 -5.61299 -121.859 -89.0229 119.116
RightUpLeg  -3.68473 -13.2913 -2.88581
RightLeg  15.4918 -9.20631 3.41769
RightFoot  -8.36667 0.0121093 -2.6346
RightToes  0.000482159 0.542163 -0.142577
Spine  11.5132 1.21597 13.2575
Spine1  13.5106 6.59081 -11.5772
HEad  37.1178 33.663 -3.30366
LeftShoulder1  6.68075 -9.95199 -43.161
LeftArm  -17.2038 25.555 -24.4569
LeftForeArm  23.5587 -29.2797 -5.05676
LeftHand  -0.25398 0.0180481 5.50724
RightShoulder  5.55141 9.58838 36.4112
RightArm  5.47789 -20.6062 38.2516
RightForeArm  3.06132 18.2368 5.94822
RightHand  -0.204147 -3.52689 -11.5265
LeftUpLeg  -8.69673 4.42428 4.70873
LeftLeg  30.9163 7.08001 4.89375
LeftFoot  -7.44173 0.261692 -6.38056
LeftToes  1.06247e-005 4.65855e-005 -8.18504e-006
622
root  -10.8335 40.3801 -5.19978 -178.445 -89.3867 175.836
RightUpLeg  -5.13416 -13.2152 -2.26031
RightLeg  15.2934 -9.32434 3.57092
RightFoot  -7.00915 0.0610478 -2.85805
RightToes  0.000482159 0.542163 -0.142577
Spine  11.0568 0.599557 13.6057
Spine1  13.7724 5.7817 -10.9024
HEad  36.6937 33.1737 -3.99119
LeftShoulder1  6.60747 -9.80743 -43.1491
LeftArm  -17.5828 25.744 -25.0021
LeftForeArm  23.7343 -28.7366 -4.92221
LeftHand  -0.25398 0.0180481 5.50724
RightShoulder  5.47771 9.48617 36.1832
RightArm  10.0611 -22.5881 38.246
RightForeArm  0.258954 20.2668 5.49183
RightHand  -0.261947 -3.05037 -12.2046
LeftUpLeg  -5.02115 4.93847 6.38151
LeftLeg  31.0192 6.41768 4.48899
LeftFoot  -7.70384 0.232088 -5.83907
LeftToes  1.06247e-005 4.65855e-005 -8.18504e-006
623
root  -10.0291 40.3131 -4.76015 131.273 -88.7445 -133.469
RightUpLeg  -7.08695 -13.3707 -1.50133
RightLeg  15.3193 -9.04712 3.47453
RightFoot  -5.48351 0.12058 -3.09017
RightToes  0.000482159 0.542163 -0.142577
Spine  10.5846 0.114201 13.4611
Spine1  13.7796 4.8555 -9.82269
HEad  36.4113 32.6628 -4.71472
LeftShoulder1  6.51948 -9.63204 -43.1405
LeftArm  -18.034 25.9638 -25.8943
LeftForeArm  23.8691 -28.2999 -4.81538
LeftHand  -0.25398 0.0180481 5.50724
RightShoulder  5.29409 9.20581 35.6788
RightArm  13.102 -24.1905 38.1839
RightForeArm  -1.64879 22.2883 5.13466
RightHand  -0.349004 -2.2872 -12.6234
LeftUpLeg  -1.34495 5.95189 7.81042
LeftLeg  29.5621 5.19877 3.52441
LeftFoot  -7.85768 0.268307 -7.32243
LeftToes  1.06247e-005 4.65855e-005 -8.18504e-006
624
root  -9.20487 40.2751 -4.30899 123.032 -88.1092 -124.72
RightUpLeg  -8.87488 -13.1442 -0.97663
RightLeg  14.7184 -9.18369 3.46396
RightFoot  -3.64441 0.182452 -3.07971
RightToes  0.000482159 0.542163 -0.142577
Spine  10.2941 -0.295728 12.9018
Spine1  13.5734 3.89931 -8.70584
HEad  35.9068 31.8456 -5.30908
LeftShoulder1  6.42842 -9.49204 -42.986
LeftArm  -18.2626 26.0445 -26.936
LeftForeArm  24.1963 -28.2799 -4.79303
LeftHand  -0.25398 0.0180481 5.50724
RightShoulder  5.02933 8.75003 35.0809
RightArm  13.3993 -25.437 38.3305
RightForeArm  -2.39988 23.8277 5.19593
RightHand  -0.44808 -1.51266 -13.1752
LeftUpLeg  2.43896 6.98975 8.73123
LeftLeg  25.573 3.38399 2.12476
LeftFoot  -9.06436 0.250461 -9.98894
LeftToes  1.06247e-005 4.65855e-005 -8.18504e-006
625
root  -8.35084 40.2985 -3.8581 120.236 -87.7624 -121.647
RightUpLeg  -9.87804 -12.4347 -0.971965
RightLeg  12.9671 -9.87751 3.77132
RightFoot  -1.22739 0.296874 -3.41876
RightToes  0.000482159 0.542163 -0.142577
Spine  10.4792 -0.666869 11.8688
Spine1  13.232 2.98494 -7.82795
HEad  34.9836 30.6001 -5.64873
LeftShoulder1  6.37029 -9.43584 -42.7691
LeftArm  -18.2652 25.8586 -27.7677
LeftForeArm  25.0693 -28.9133 -4.88958
LeftHand  -0.25398 0.0180481 5.50724
RightShoulder  4.87511 8.4606 34.7904
RightArm  11.9174 -26.2724 38.6365
RightForeArm  -3.7624 24.6177 5.45962
RightHand  -0.588599 -0.686766 -14.418
LeftUpLeg  6.16191 8.67079 9.06314
LeftLeg  19.064 1.30251 0.79382
LeftFoot  -11.1811 0.087096 -10.6764
LeftToes  1.06247e-005 4.65855e-005 -8.18504e-006
626
root  -7.44059 40.3493 -3.41576 126.17 -87.7232 -127.34
RightUpLeg  -10.6678 -11.5273 -1.45798
RightLeg  10.6764 -10.6304 4.18922
RightFoot  1.56335 0.467617 -4.04252
RightToes  0.000482159 0.542163 -0.142577
Spine  11.0473 -0.875109 10.0004
Spine1  12.6574 2.13734 -6.8858
HEad  33.7252 28.9638 -5.80968
LeftShoulder1  6.35262 -9.42858 -42.6682
LeftArm  -18.256 25.4777 -28.135
LeftForeArm  26.5343 -30.1783 -5.10152
LeftHand  -0.25398 0.0180481 5.50724
RightShoulder  4.96142 8.60409 35.014
RightArm  9.97911 -26.5886 38.9045
RightForeArm  -5.88984 24.5146 5.54157
RightHand  -0.742973 0.0636111 -15.8241
LeftUpLeg  8.65994 10.0135 8.6138
LeftLeg  12.1858 1.04779 -0.415956
LeftFoot  -12.7016 -0.0227676 -8.22953
LeftToes  1.06247e-005 4.65855e-005 -8.18504e-006
627
root  -6.4748 40.394 -3.00116 141.284 -88.0455 -141.836
RightUpLeg  -11.8618 -10.5525 -2.4478
RightLeg  8.35588 -11.3855 4.55026
RightFoot  3.80464 0.435249 -3.10235
RightToes  0.000482159 0.542163 -0.142577
Spine  11.6082 -0.887519 7.21394
Spine1  11.7952 1.33226 -5.55407
HEad  32.1954 26.9391 -5.94728
LeftShoulder1  6.33403 -9.39458 -42.6543
LeftArm  -18.383 25.0057 -28.0452
LeftForeArm  28.1477 -31.8462 -5.4077
LeftHand  -0.25398 0.0180481 5.50724
RightShoulder  5.17198 8.95184 35.552
RightArm  7.45843 -26.4329 39.2632
RightForeArm  -6.52649 23.695 5.40565
RightHand  -0.784498 0.244071 -16.1709
LeftUpLeg  8.65168 8.13239 7.02711
LeftLeg  7.78697 4.69211 -1.9471
LeftFoot  -12.8019 0.00994516 -5.09595
LeftToes  1.06247e-005 4.65855e-005 -8.18504e-006
628
root  -5.51263 40.4224 -2.62919 166.519 -88.5497 -166.222
RightUpLeg  -13.098 -9.91332 -3.8973
RightLeg  6.14065 -12.0918 4.93784
RightFoot  4.41334 -0.0356413 0.511496
RightToes  0.000482159 0.542163 -0.142577
Spine  11.9616 -0.826684 4.35675
Spine1  10.9457 0.681555 -4.26935
HEad  30.3633 24.4093 -6.11996
LeftShoulder1  6.28811 -9.31966 -42.5875
LeftArm  -18.6418 24.348 -27.5935
LeftForeArm  29.3814 -33.5948 -5.76738
LeftHand  -0.25398 0.0180481 5.50724
RightShoulder  5.30913 9.12113 36.071
RightArm  3.80562 -26.0602 40.0377
RightForeArm  -4.54443 22.6818 5.20156
RightHand  -0.702628 -0.0843115 -15.3503
LeftUpLeg  6.54183 7.09516 5.32222
LeftLeg  6.92895 6.47973 -2.85302
LeftFoot  -12.2428 0.0430741 -3.94231
LeftToes  1.06247e-005 4.65855e-005 -8.18504e-006
629
root  -4.63586 40.4408 -2.29043 -164.853 -88.6562 165.612
RightUpLeg  -13.8748 -10.32 -5.17713
RightLeg  5.02778 -11.9156 5.07454
RightFoot  3.34499 -0.565249 4.57449
RightToes  0.000482159 0.542163 -0.142577
Spine  12.2119 -0.71886 2.7217
Spine1  10.483 0.523338 -3.89804
HEad  28.4468 21.3687 -6.32606
LeftShoulder1  6.25101 -9.27136 -42.4899
LeftArm  -18.9814 23.4039 -26.8069
LeftForeArm  29.9956 -35.0311 -6.09729
LeftHand  -0.25398 0.0180481 5.50724
RightShoulder  5.34935 9.10531 36.4326
RightArm  -0.247709 -25.6715 41.0739
RightForeArm  -1.26801 21.8238 5.04796
RightHand  -0.637156 -0.272185 -14.427
LeftUpLeg  4.31684 6.90557 4.13709
LeftLeg  7.62303 6.51064 -3.38146
LeftFoot  -11.687 0.0576107 -4.13134
LeftToes  1.06247e-005 4.65855e-005 -8.18504e-006
630
root  -3.88168 40.4785 -1.96869 -158.867 -88.0432 159.401
RightUpLeg  -14.6318 -12.5037 -5.3037
RightLeg  7.0125 -9.52863 4.03566
RightFoot  1.66239 -0.680321 6.03489
RightToes  0.000482159 0.542163 -0.142577
Spine  12.4815 -0.426755 2.69234
Spine1  10.3256 1.0416 -4.60601
HEad  26.9275 18.1852 -6.58587
LeftShoulder1  6.24918 -9.2911 -42.4072
LeftArm  -19.3026 22.4383 -25.7806
LeftForeArm  30.0494 -35.795 -6.29398
LeftHand  -0.25398 0.0180481 5.50724
RightShoulder  5.40555 9.15809 36.6919
RightArm  -3.09922 -25.2729 41.5897
RightForeArm  2.14084 21.0782 4.90931
RightHand  -0.613345 -0.238519 -13.7958
LeftUpLeg  3.3908 6.76071 3.45623
LeftLeg  7.61124 7.09234 -3.93338
LeftFoot  -11.0546 0.0750512 -3.76135
LeftToes  1.06247e-005 4.65855e-005 -8.18504e-006
631
root  -3.24243 40.5458 -1.66453 -168.324 -87.0332 168.267
RightUpLeg  -15.6474 -16.5302 -3.97733
RightLeg  11.919 -4.54521 1.52523
RightFoot  0.346808 -0.524382 5.13851
RightToes  0.000482159 0.542163 -0.142577
Spine  12.7003 0.0151398 3.4961
Spine1  10.1148 1.84734 -5.54559
HEad  25.9444 15.4639 -6.86213
LeftShoulder1  6.19823 -9.27192 -42.105
LeftArm  -19.3399 21.9103 -24.7626
LeftForeArm  29.92 -35.7352 -6.28598
LeftHand  -0.25398 0.0180481 5.50724
RightShoulder  5.48806 9.31222 36.8197
RightArm  -4.65532 -24.7792 40.9379
RightForeArm  6.22385 20.419 4.73853
RightHand  -0.576193 -0.271945 -13.0476
LeftUpLeg  3.43322 6.5946 3.11003
LeftLeg  6.8552 8.56806 -4.36256
LeftFoot  -10.2817 0.0891431 -2.948
LeftToes  1.06247e-005 4.65855e-005 -8.18504e-006
